<?xml version="1.0" encoding="UTF-8"?>
<svg xmlns="http://www.w3.org/2000/svg" viewBox="0 0 500 500" width="500" height="500">
<path d="M0.11 0.11C166.7 0.11 333.3 0.11 499.89 0.11C499.89 166.7 499.89 333.3 499.89 499.89C333.3 499.89 166.7 499.89 0.11 499.89C0.11 333.3 0.11 166.7 0.11 0.11ZM104.01 122.11C100.05 122.79 98.83 127.12 102.62 129.1C108.86 132.37 121.38 129.28 123.08 138.73C124.66 147.52 123.67 157.08 123.67 165.98C123.67 182.72 123.67 199.47 123.67 216.21C123.67 244.67 123.67 273.14 123.67 301.6C123.67 311.04 123.67 320.47 123.67 329.91C123.67 334.25 124.19 339.17 123.52 343.45C121.97 353.29 112.67 353.62 104.79 355.07C102.56 355.49 99.52 357.39 100.38 360.09C101.35 363.1 104.43 363 107.08 363C113.01 363 118.95 363 124.89 363C149.58 363 178.15 366.41 201.3 356.79C225.77 346.63 241.21 323.59 249.36 299.34C265.04 252.61 260.75 178.76 223.71 142.28C200.23 119.15 171.82 122 141.32 122C132.8 122 124.28 122 115.75 122C111.97 122 107.74 121.47 104.01 122.11ZM278.36 122.11C274.66 122.43 272.58 126.78 276.27 128.97C282.35 132.59 295.51 128.98 297.09 138.66C298.58 147.83 297.67 157.63 297.67 166.89C297.67 183.64 297.67 200.38 297.67 217.12C297.67 244.98 297.67 272.83 297.67 300.68C297.67 314.66 298.84 329.22 297.58 343.13C296.72 352.64 291.09 352.77 283.14 354.58C280.02 355.28 273.51 355.02 274.43 360.03C275 363.12 278.64 362.98 281.05 363C287.75 363.05 294.45 363 301.14 363C322.45 363 343.76 363 365.07 363C370.74 363 387.1 364.35 391.52 362.11C396.84 359.42 395.97 351.4 396.11 346.4C396.51 332.24 398.41 318.08 398.96 303.88C399.09 300.38 401.58 287.88 396.89 286.96C390.45 285.7 389.97 293.66 389.26 298.11C387.06 311.9 384.63 326.89 376.78 338.67C373.63 343.4 368.93 347.81 363.83 350.37C351.82 356.39 330.43 357.69 323.59 343.28C320.47 336.71 321.27 328.73 321.27 321.69C321.27 309.06 321.27 296.42 321.27 283.79C321.27 237.58 320 191.17 321.27 144.98C321.34 142.44 321.32 138.72 322.42 136.38C325.7 129.42 336.93 131.45 342.88 129.43C345.07 128.69 345.84 125.94 344.76 123.97C343.03 120.79 332.06 122 328.54 122C312 122 294.84 120.68 278.36 122.11ZM166.96 131.22C171.77 130.38 176.95 130.88 181.7 131.74C204.84 135.91 216.02 156.07 223.22 176.51C232.41 202.6 232.64 233.13 231.14 260.5C230.19 277.87 228.53 296.39 221.95 312.59C213.57 333.19 199.51 352.89 175.11 354.02C170.24 354.25 165.25 354.32 160.5 353.08C143.34 348.6 147.23 322.71 147.23 309.36C147.23 267.05 147.23 224.73 147.23 182.42C147.23 174.8 147.12 167.17 147.28 159.55C147.6 144.17 150.27 134.16 166.96 131.22Z" fill="#ffffff" fill-rule="evenodd" stroke="#ffffff" stroke-width="0.25" stroke-linejoin="round"/>
<path d="M104.01 122.11C107.74 121.47 111.97 122 115.75 122C124.28 122 132.8 122 141.32 122C171.82 122 200.23 119.15 223.71 142.28C260.75 178.76 265.04 252.61 249.36 299.34C241.21 323.59 225.77 346.63 201.3 356.79C178.15 366.41 149.58 363 124.89 363C118.95 363 113.01 363 107.08 363C104.43 363 101.35 363.1 100.38 360.09C99.52 357.39 102.56 355.49 104.79 355.07C112.67 353.62 121.97 353.29 123.52 343.45C124.19 339.17 123.67 334.25 123.67 329.91C123.67 320.47 123.67 311.04 123.67 301.6C123.67 273.14 123.67 244.67 123.67 216.21C123.67 199.47 123.67 182.72 123.67 165.98C123.67 157.08 124.66 147.52 123.08 138.73C121.38 129.28 108.86 132.37 102.62 129.1C98.83 127.12 100.05 122.79 104.01 122.11ZM278.36 122.11C294.84 120.68 312 122 328.54 122C332.06 122 343.03 120.79 344.76 123.97C345.84 125.94 345.07 128.69 342.88 129.43C336.93 131.45 325.7 129.42 322.42 136.38C321.32 138.72 321.34 142.44 321.27 144.98C320 191.17 321.27 237.58 321.27 283.79C321.27 296.42 321.27 309.06 321.27 321.69C321.27 328.73 320.47 336.71 323.59 343.28C330.43 357.69 351.82 356.39 363.83 350.37C368.93 347.81 373.63 343.4 376.78 338.67C384.63 326.89 387.06 311.9 389.26 298.11C389.97 293.66 390.45 285.7 396.89 286.96C401.58 287.88 399.09 300.38 398.96 303.88C398.41 318.08 396.51 332.24 396.11 346.4C395.97 351.4 396.84 359.42 391.52 362.11C387.1 364.35 370.74 363 365.07 363C343.76 363 322.45 363 301.14 363C294.45 363 287.75 363.05 281.05 363C278.64 362.98 275 363.12 274.43 360.03C273.51 355.02 280.02 355.28 283.14 354.58C291.09 352.77 296.72 352.64 297.58 343.13C298.84 329.22 297.67 314.66 297.67 300.68C297.67 272.83 297.67 244.98 297.67 217.12C297.67 200.38 297.67 183.64 297.67 166.89C297.67 157.63 298.58 147.83 297.09 138.66C295.51 128.98 282.35 132.59 276.27 128.97C272.58 126.78 274.66 122.43 278.36 122.11ZM166.96 131.22C150.27 134.16 147.6 144.17 147.28 159.55C147.12 167.17 147.23 174.8 147.23 182.42C147.23 224.73 147.23 267.05 147.23 309.36C147.23 322.71 143.34 348.6 160.5 353.08C165.25 354.32 170.24 354.25 175.11 354.02C199.51 352.89 213.57 333.19 221.95 312.59C228.53 296.39 230.19 277.87 231.14 260.5C232.64 233.13 232.41 202.6 223.22 176.51C216.02 156.07 204.84 135.91 181.7 131.74C176.95 130.88 171.77 130.38 166.96 131.22Z" fill="#020202" fill-rule="evenodd" stroke="#020202" stroke-width="0.25" stroke-linejoin="round"/>
</svg>